<?xml version="1.0" encoding="UTF-8" standalone="no"?>
<!DOCTYPE svg PUBLIC "-//W3C//DTD SVG 1.1//EN" "http://www.w3.org/Graphics/SVG/1.1/DTD/svg11.dtd">
<svg width="100%" height="100%" viewBox="0 0 401 402" version="1.1" xmlns="http://www.w3.org/2000/svg" xmlns:xlink="http://www.w3.org/1999/xlink" xml:space="preserve" xmlns:serif="http://www.serif.com/" style="fill-rule:evenodd;clip-rule:evenodd;stroke-linecap:round;stroke-linejoin:round;stroke-miterlimit:1.5;">
    <g transform="matrix(1,0,0,1,-99,-99)">
        <circle cx="299.5" cy="299.5" r="99.5" style="fill:white;stroke:black;stroke-width:12.08px;"/>
    </g>
    <g transform="matrix(1,0,0,1,-99,-99)">
        <circle cx="299.5" cy="300.5" r="20.5" style="fill:white;stroke:black;stroke-width:4.5px;"/>
    </g>
    <g transform="matrix(0.707107,0.707107,-0.707107,0.707107,193.17,-237.147)">
        <path d="M316,239.5C316,239.224 315.776,239 315.5,239L314.5,239C314.224,239 314,239.224 314,239.5L314,283.5C314,283.776 314.224,284 314.5,284L315.5,284C315.776,284 316,283.776 316,283.5L316,239.5Z" style="fill:white;stroke:black;stroke-width:4.5px;"/>
    </g>
    <g transform="matrix(1,0,0,1,-99,-99)">
        <rect x="295" y="173" width="10" height="25" style="stroke:black;stroke-width:4.5px;"/>
    </g>
    <g transform="matrix(0.55,0,0,1,36.55,-97)">
        <path d="M319,140.5C319,137.464 314.519,135 309,135L289,135C283.481,135 279,137.464 279,140.5L279,163.5C279,166.536 283.481,169 289,169L309,169C314.519,169 319,166.536 319,163.5L319,140.5Z" style="fill:white;stroke:black;stroke-width:5.58px;"/>
    </g>
</svg>
