<?xml version="1.0" encoding="UTF-8" standalone="no"?>
<!DOCTYPE svg PUBLIC "-//W3C//DTD SVG 1.1//EN" "http://www.w3.org/Graphics/SVG/1.1/DTD/svg11.dtd">
<svg width="100%" height="100%" viewBox="0 0 600 600" version="1.1" xmlns="http://www.w3.org/2000/svg" xmlns:xlink="http://www.w3.org/1999/xlink" xml:space="preserve" xmlns:serif="http://www.serif.com/" style="fill-rule:evenodd;clip-rule:evenodd;stroke-linecap:round;stroke-linejoin:round;stroke-miterlimit:1.5;">
    <circle id="Outer" cx="300" cy="300" r="280" style="fill:white;stroke:black;stroke-width:10px;"/>
    <circle id="_3rd" serif:id="3rd" cx="300" cy="300" r="180" style="fill:white;stroke:black;stroke-width:8px;"/>
    <circle id="_2nd" serif:id="2nd" cx="300" cy="300" r="100" style="fill:white;stroke:black;stroke-width:8px;"/>
    <circle id="Bullseye" cx="300" cy="300" r="40" style="fill:white;stroke:black;stroke-width:8px;"/>
    <path d="M100,200C100,200 126.046,124.401 200,100" style="fill:none;stroke:black;stroke-width:7.55px;"/>
    <g id="Arrow" transform="matrix(0.866025,-0.5,0.5,0.866025,-111.708,185.545)">
        <path d="M560,302.25C560,301.008 558.992,300 557.75,300L301.25,300C300.008,300 299,301.008 299,302.25L299,306.75C299,307.992 300.008,309 301.25,309L557.75,309C558.992,309 560,307.992 560,306.75L560,302.25Z" style="stroke:black;stroke-width:7.55px;"/>
    </g>
    <g transform="matrix(0.866025,-0.5,0.883967,1.53108,53.8299,-416.712)">
        <path d="M160,408.484C160,403.802 153.279,400 145,400L115,400C106.721,400 100,403.802 100,408.484L100,431.516C100,436.198 106.721,440 115,440L145,440C153.279,440 160,436.198 160,431.516L160,408.484Z" style="stroke:black;stroke-width:5.57px;"/>
    </g>
    <g transform="matrix(0.547807,0.948829,-0.866025,0.5,443.807,-201.579)">
        <path d="M330,112C336.316,100 348.947,100 355.263,106C361.579,112 361.579,124 355.263,136C350.842,145 339.474,154 330,160C320.526,154 309.158,145 304.737,136C298.421,124 298.421,112 304.737,106C311.053,100 323.684,100 330,112Z" style="stroke:black;stroke-width:7.63px;"/>
    </g>
</svg>
