<?xml version="1.0" encoding="UTF-8" standalone="no"?>
<!DOCTYPE svg PUBLIC "-//W3C//DTD SVG 1.1//EN" "http://www.w3.org/Graphics/SVG/1.1/DTD/svg11.dtd">
<svg width="100%" height="100%" viewBox="0 0 600 600" version="1.1" xmlns="http://www.w3.org/2000/svg" xmlns:xlink="http://www.w3.org/1999/xlink" xml:space="preserve" xmlns:serif="http://www.serif.com/" style="fill-rule:evenodd;clip-rule:evenodd;stroke-linecap:round;stroke-linejoin:round;stroke-miterlimit:1.5;">
    <circle cx="300.5" cy="299.5" r="200.5" style="fill:white;stroke:black;stroke-width:10px;"/>
    <g transform="matrix(0.693224,-0.720722,0.720722,0.693224,-106.673,346.31)">
        <path d="M354,440.5C354,440.224 353.776,440 353.5,440L352.5,440C352.224,440 352,440.224 352,440.5L352,458.5C352,458.776 352.224,459 352.5,459L353.5,459C353.776,459 354,458.776 354,458.5L354,440.5Z" style="stroke:black;stroke-width:10px;"/>
    </g>
    <g transform="matrix(0.760883,-0.648889,0.648889,0.760883,-119.267,315.541)">
        <path d="M354,440.5C354,440.224 353.776,440 353.5,440L352.5,440C352.224,440 352,440.224 352,440.5L352,458.5C352,458.776 352.224,459 352.5,459L353.5,459C353.776,459 354,458.776 354,458.5L354,440.5Z" style="stroke:black;stroke-width:10px;"/>
    </g>
    <g transform="matrix(0.791617,-0.611017,0.611017,0.791617,-125.093,299.357)">
        <path d="M354,440.5C354,440.224 353.776,440 353.5,440L352.5,440C352.224,440 352,440.224 352,440.5L352,458.5C352,458.776 352.224,459 352.5,459L353.5,459C353.776,459 354,458.776 354,458.5L354,440.5Z" style="stroke:black;stroke-width:10px;"/>
    </g>
    <circle cx="300" cy="299" r="119" style="fill:white;stroke:black;stroke-width:10px;"/>
    <circle cx="299" cy="299" r="39" style="fill:white;stroke:black;stroke-width:10px;"/>
    <g transform="matrix(-0.377224,-0.926122,0.926122,-0.377224,363.543,840.781)">
        <path d="M525,146.25C525,146.112 524.888,146 524.75,146L524.25,146C524.112,146 524,146.112 524,146.25L524,386.75C524,386.888 524.112,387 524.25,387L524.75,387C524.888,387 525,386.888 525,386.75L525,146.25Z" style="stroke:black;stroke-width:10px;"/>
    </g>
    <g transform="matrix(-0.389304,-0.921109,0.921109,-0.389304,549.931,751.66)">
        <path d="M512,159L530,224L494,224L512,159Z" style="stroke:black;stroke-width:10px;"/>
    </g>
    <g transform="matrix(-0.539681,-1.25681,0.918867,-0.394566,659.267,780.015)">
        <rect x="410" y="97" width="27" height="43" style="stroke:black;stroke-width:8.35px;"/>
    </g>
    <g transform="matrix(0.929778,0.368121,-0.230212,0.581455,93.2195,-50.3436)">
        <rect x="478" y="117" width="5" height="29" style="stroke:black;stroke-width:11.99px;"/>
    </g>
    <g transform="matrix(-0.397663,0.917532,-0.573797,-0.248686,783.236,-187.172)">
        <rect x="478" y="117" width="5" height="29" style="stroke:black;stroke-width:11.99px;"/>
    </g>
    <g transform="matrix(0.874206,-0.485554,0.485554,0.874206,-136.852,246.945)">
        <path d="M354,440.5C354,440.224 353.776,440 353.5,440L352.5,440C352.224,440 352,440.224 352,440.5L352,458.5C352,458.776 352.224,459 352.5,459L353.5,459C353.776,459 354,458.776 354,458.5L354,440.5Z" style="stroke:black;stroke-width:10px;"/>
    </g>
    <g transform="matrix(0.854709,-0.519107,0.519107,0.854709,-131.051,258.553)">
        <path d="M354,440.5C354,440.224 353.776,440 353.5,440L352.5,440C352.224,440 352,440.224 352,440.5L352,458.5C352,458.776 352.224,459 352.5,459L353.5,459C353.776,459 354,458.776 354,458.5L354,440.5Z" style="stroke:black;stroke-width:10px;"/>
    </g>
    <g transform="matrix(0.818344,-0.574729,0.574729,0.818344,-130.216,284.534)">
        <path d="M354,440.5C354,440.224 353.776,440 353.5,440L352.5,440C352.224,440 352,440.224 352,440.5L352,458.5C352,458.776 352.224,459 352.5,459L353.5,459C353.776,459 354,458.776 354,458.5L354,440.5Z" style="stroke:black;stroke-width:10px;"/>
    </g>
    <g transform="matrix(0.730963,-0.682417,0.682417,0.730963,-112.776,328.825)">
        <path d="M354,440.5C354,440.224 353.776,440 353.5,440L352.5,440C352.224,440 352,440.224 352,440.5L352,458.5C352,458.776 352.224,459 352.5,459L353.5,459C353.776,459 354,458.776 354,458.5L354,440.5Z" style="stroke:black;stroke-width:10px;"/>
    </g>
    <g transform="matrix(3.27668,2.44195,-0.597559,0.801825,-57.0017,-226.304)">
        <path d="M113.5,144C110.602,154 108.25,177.443 108.25,204C108.25,230.557 110.602,254 113.5,264C111.761,250 110.35,227.934 110.35,204C110.35,180.066 111.761,158 113.5,144Z" style="stroke:black;stroke-width:3.36px;"/>
    </g>
    <g transform="matrix(3.51478,2.61939,-0.653453,0.876825,-77.7695,-265.38)">
        <path d="M113.5,144C110.602,154 108.25,177.443 108.25,204C108.25,230.557 110.602,254 113.5,264C111.761,250 110.35,227.934 110.35,204C110.35,180.066 111.761,158 113.5,144Z" style="fill:white;stroke:white;stroke-width:3.13px;"/>
    </g>
</svg>
